<svg width="29" height="30" viewBox="0 0 29 30" fill="none" xmlns="http://www.w3.org/2000/svg">
<path d="M15.5833 3.91667H1M12.6667 25.7917H1M27.25 25.7917H21.4167M27.25 14.8542H12.6667M27.25 3.91667H24.3333M3.91667 14.8542H1M17.7708 1C18.4503 1 18.7901 1 19.0581 1.11101C19.4154 1.25901 19.6993 1.54292 19.8474 1.90026C19.9583 2.16826 19.9583 2.508 19.9583 3.1875V4.64583C19.9583 5.32533 19.9583 5.66508 19.8474 5.93307C19.6993 6.29041 19.4154 6.57432 19.0581 6.72233C18.7901 6.83333 18.4503 6.83333 17.7708 6.83333C17.0914 6.83333 16.7516 6.83333 16.4836 6.72233C16.1263 6.57432 15.8423 6.29041 15.6943 5.93307C15.5833 5.66508 15.5833 5.32533 15.5833 4.64583V3.1875C15.5833 2.508 15.5833 2.16826 15.6943 1.90026C15.8423 1.54292 16.1263 1.25901 16.4836 1.11101C16.7516 1 17.0914 1 17.7708 1ZM14.8542 22.875C15.5336 22.875 15.8734 22.875 16.1414 22.986C16.4987 23.134 16.7827 23.4179 16.9307 23.7752C17.0417 24.0433 17.0417 24.3831 17.0417 25.0625V26.5208C17.0417 27.2003 17.0417 27.5401 16.9307 27.8081C16.7827 28.1654 16.4987 28.4493 16.1414 28.5974C15.8734 28.7083 15.5336 28.7083 14.8542 28.7083C14.1747 28.7083 13.8349 28.7083 13.5669 28.5974C13.2096 28.4493 12.9257 28.1654 12.7776 27.8081C12.6667 27.5401 12.6667 27.2003 12.6667 26.5208V25.0625C12.6667 24.3831 12.6667 24.0433 12.7776 23.7752C12.9257 23.4179 13.2096 23.134 13.5669 22.986C13.8349 22.875 14.1747 22.875 14.8542 22.875ZM10.4792 11.9375C11.1587 11.9375 11.4984 11.9375 11.7664 12.0485C12.1237 12.1965 12.4077 12.4804 12.5557 12.8377C12.6667 13.1058 12.6667 13.4456 12.6667 14.125V15.5833C12.6667 16.2628 12.6667 16.6026 12.5557 16.8706C12.4077 17.2279 12.1237 17.5118 11.7664 17.6599C11.4984 17.7708 11.1587 17.7708 10.4792 17.7708C9.79967 17.7708 9.45992 17.7708 9.19193 17.6599C8.83459 17.5118 8.55068 17.2279 8.40268 16.8706C8.29167 16.6026 8.29167 16.2628 8.29167 15.5833V14.125C8.29167 13.4456 8.29167 13.1058 8.40268 12.8377C8.55068 12.4804 8.83459 12.1965 9.19193 12.0485C9.45992 11.9375 9.79967 11.9375 10.4792 11.9375Z" stroke="white" stroke-width="2" stroke-linecap="round" stroke-linejoin="round"/>
</svg>
