<svg width="29" height="33" viewBox="0 0 29 33" fill="none" xmlns="http://www.w3.org/2000/svg">
<path d="M11.0662 13.2773L10.5797 12.1826C10.2615 11.4668 10.1025 11.1089 9.8646 10.835C9.56647 10.4917 9.17786 10.2392 8.74311 10.1062C8.39621 10 8.00455 10 7.22125 10C6.07539 10 5.50246 10 5.0215 10.2203C4.45496 10.4797 3.94332 11.0431 3.73946 11.632C3.5664 12.1319 3.61598 12.6456 3.71511 13.673C4.77039 24.609 10.766 30.6046 21.702 31.6599C22.7294 31.7591 23.2432 31.8086 23.743 31.6356C24.3319 31.4317 24.8952 30.92 25.1548 30.3535C25.3749 29.8725 25.3749 29.2996 25.3749 28.1538C25.3749 27.3704 25.3749 26.9788 25.2689 26.6319C25.1358 26.1971 24.8833 25.8085 24.54 25.5104C24.2662 25.2725 23.9083 25.1135 23.1925 24.7953L22.0977 24.3087C21.3226 23.9642 20.9349 23.792 20.5411 23.7546C20.1641 23.7187 19.7841 23.7716 19.4313 23.909C19.0626 24.0526 18.7368 24.3241 18.0851 24.8671C17.4364 25.4077 17.1121 25.678 16.7158 25.8228C16.3644 25.9511 15.8999 25.9987 15.5299 25.9441C15.1125 25.8826 14.7928 25.7118 14.1535 25.3701C12.1646 24.3073 11.0678 23.2105 10.0048 21.2214C9.66321 20.5822 9.4924 20.2625 9.43088 19.8451C9.37635 19.475 9.42388 19.0105 9.55223 18.6593C9.69702 18.2629 9.96731 17.9386 10.5079 17.2899C11.051 16.6382 11.3225 16.3124 11.4661 15.9437C11.6034 15.5909 11.6563 15.2108 11.6205 14.8339C11.583 14.44 11.4107 14.0525 11.0662 13.2773Z" stroke="#F0F4F5" stroke-width="2" stroke-linecap="round"/>
</svg>
