<svg width="57" height="57" viewBox="0 0 57 57" fill="none" xmlns="http://www.w3.org/2000/svg">
<path d="M32.342 50.7466C31.3122 51.7109 29.9354 52.25 28.5026 52.25C27.0698 52.25 25.6932 51.7109 24.6632 50.7466C15.2309 41.8618 2.59056 31.9364 8.75489 17.5267C12.0879 9.73551 20.0886 4.75 28.5026 4.75C36.9168 4.75 44.9174 9.73551 48.2505 17.5267C54.407 31.9183 41.7976 41.8924 32.342 50.7466Z" fill="#CF3131"/>
<path d="M36.8125 26.125C36.8125 30.7159 33.0909 34.4375 28.5 34.4375C23.9091 34.4375 20.1875 30.7159 20.1875 26.125C20.1875 21.5341 23.9091 17.8125 28.5 17.8125C33.0909 17.8125 36.8125 21.5341 36.8125 26.125Z" fill="#761212"/>
</svg>
