<svg width="29" height="29" viewBox="0 0 29 29" fill="none" xmlns="http://www.w3.org/2000/svg">
<path d="M14.4823 18.6184L18.399 23.0714C19.8501 24.7212 20.5757 25.5461 21.3351 25.3453C22.0946 25.1444 22.3551 24.0589 22.8759 21.8875L25.7651 9.84296C26.5673 6.4988 26.9684 4.82673 26.0768 4.002C25.1853 3.17727 23.6398 3.79084 20.549 5.01799L6.2093 10.7113C3.73725 11.6927 2.50122 12.1835 2.42275 13.0268C2.41472 13.1131 2.41459 13.2 2.42236 13.2862C2.49824 14.1299 3.73276 14.6248 6.20179 15.6144C7.3205 16.0629 7.87987 16.2871 8.28091 16.7166C8.32601 16.7648 8.36936 16.8148 8.4109 16.8664C8.78041 17.3256 8.93811 17.9282 9.25347 19.1332L9.84369 21.3887C10.1506 22.5614 10.304 23.1478 10.7059 23.2278C11.1078 23.3077 11.4577 22.8214 12.1575 21.849L14.4823 18.6184ZM14.4823 18.6184L14.0983 18.2182C13.6613 17.7626 13.4428 17.535 13.4428 17.252C13.4428 16.969 13.6613 16.7412 14.0983 16.2857L18.4157 11.7862" stroke="#F0F4F5" stroke-width="2" stroke-linecap="round" stroke-linejoin="round"/>
</svg>
