<svg width="64" height="64" viewBox="0 0 64 64" fill="none" xmlns="http://www.w3.org/2000/svg">
<circle cx="32" cy="32" r="32" fill="#D01D23"/>
<path d="M39.4668 22.6666C39.4668 26.7903 36.1238 30.1333 32.0001 30.1333C27.8764 30.1333 24.5335 26.7903 24.5335 22.6666C24.5335 18.5429 27.8764 15.2 32.0001 15.2C36.1238 15.2 39.4668 18.5429 39.4668 22.6666Z" fill="#070E0F"/>
<path d="M35.7335 35.7333H28.2668C23.1122 35.7333 18.9335 39.912 18.9335 45.0666C18.9335 47.1285 20.6049 48.7999 22.6668 48.7999H41.3335C43.3954 48.7999 45.0668 47.1285 45.0668 45.0666C45.0668 39.912 40.8881 35.7333 35.7335 35.7333Z" fill="#070E0F"/>
<path d="M39.4668 22.6666H37.4668C37.4668 25.6858 35.0192 28.1333 32.0001 28.1333V30.1333V32.1333C37.2283 32.1333 41.4668 27.8949 41.4668 22.6666H39.4668ZM32.0001 30.1333V28.1333C28.981 28.1333 26.5335 25.6858 26.5335 22.6666H24.5335H22.5335C22.5335 27.8949 26.7718 32.1333 32.0001 32.1333V30.1333ZM24.5335 22.6666H26.5335C26.5335 19.6475 28.981 17.2 32.0001 17.2V15.2V13.2C26.7718 13.2 22.5335 17.4383 22.5335 22.6666H24.5335ZM32.0001 15.2V17.2C35.0192 17.2 37.4668 19.6475 37.4668 22.6666H39.4668H41.4668C41.4668 17.4383 37.2283 13.2 32.0001 13.2V15.2ZM35.7335 35.7333V33.7333H28.2668V35.7333V37.7333H35.7335V35.7333ZM28.2668 35.7333V33.7333C22.0076 33.7333 16.9335 38.8074 16.9335 45.0666H18.9335H20.9335C20.9335 41.0166 24.2167 37.7333 28.2668 37.7333V35.7333ZM18.9335 45.0666H16.9335C16.9335 48.2331 19.5004 50.7999 22.6668 50.7999V48.7999V46.8C21.7095 46.8 20.9335 46.0239 20.9335 45.0666H18.9335ZM22.6668 48.7999V50.7999H41.3335V48.7999V46.8H22.6668V48.7999ZM41.3335 48.7999V50.7999C44.5 50.7999 47.0668 48.2331 47.0668 45.0666H45.0668H43.0668C43.0668 46.024 42.2908 46.8 41.3335 46.8V48.7999ZM45.0668 45.0666H47.0668C47.0668 38.8074 41.9927 33.7333 35.7335 33.7333V35.7333V37.7333C39.7835 37.7333 43.0668 41.0166 43.0668 45.0666H45.0668Z" fill="#070E0F"/>
</svg>
