<svg width="64" height="64" viewBox="0 0 64 64" fill="none" xmlns="http://www.w3.org/2000/svg">
<circle cx="32" cy="32" r="32" fill="#D01D23"/>
<path d="M39.4668 22.6669C39.4668 26.7906 36.1238 30.1335 32.0001 30.1335C27.8764 30.1335 24.5335 26.7906 24.5335 22.6669C24.5335 18.5431 27.8764 15.2002 32.0001 15.2002C36.1238 15.2002 39.4668 18.5431 39.4668 22.6669Z" fill="#070E0F"/>
<path d="M35.7335 35.7335H28.2668C23.1122 35.7335 18.9335 39.9122 18.9335 45.0669C18.9335 47.1288 20.6049 48.8002 22.6668 48.8002H41.3335C43.3954 48.8002 45.0668 47.1288 45.0668 45.0669C45.0668 39.9122 40.8881 35.7335 35.7335 35.7335Z" fill="#070E0F"/>
<path d="M39.4668 22.6669H37.4668C37.4668 25.686 35.0192 28.1335 32.0001 28.1335V30.1335V32.1335C37.2283 32.1335 41.4668 27.8952 41.4668 22.6669H39.4668ZM32.0001 30.1335V28.1335C28.981 28.1335 26.5335 25.686 26.5335 22.6669H24.5335H22.5335C22.5335 27.8952 26.7718 32.1335 32.0001 32.1335V30.1335ZM24.5335 22.6669H26.5335C26.5335 19.6477 28.981 17.2002 32.0001 17.2002V15.2002V13.2002C26.7718 13.2002 22.5335 17.4386 22.5335 22.6669H24.5335ZM32.0001 15.2002V17.2002C35.0192 17.2002 37.4668 19.6477 37.4668 22.6669H39.4668H41.4668C41.4668 17.4386 37.2283 13.2002 32.0001 13.2002V15.2002ZM35.7335 35.7335V33.7335H28.2668V35.7335V37.7335H35.7335V35.7335ZM28.2668 35.7335V33.7335C22.0076 33.7335 16.9335 38.8077 16.9335 45.0669H18.9335H20.9335C20.9335 41.0168 24.2167 37.7335 28.2668 37.7335V35.7335ZM18.9335 45.0669H16.9335C16.9335 48.2334 19.5004 50.8002 22.6668 50.8002V48.8002V46.8002C21.7095 46.8002 20.9335 46.0242 20.9335 45.0669H18.9335ZM22.6668 48.8002V50.8002H41.3335V48.8002V46.8002H22.6668V48.8002ZM41.3335 48.8002V50.8002C44.5 50.8002 47.0668 48.2334 47.0668 45.0669H45.0668H43.0668C43.0668 46.0242 42.2908 46.8002 41.3335 46.8002V48.8002ZM45.0668 45.0669H47.0668C47.0668 38.8077 41.9927 33.7335 35.7335 33.7335V35.7335V37.7335C39.7835 37.7335 43.0668 41.0168 43.0668 45.0669H45.0668Z" fill="#070E0F"/>
</svg>
