<svg width="64" height="64" viewBox="0 0 64 64" fill="none" xmlns="http://www.w3.org/2000/svg">
<circle cx="32" cy="32" r="32" fill="#D01D23"/>
<path d="M39.4669 22.6667C39.4669 26.7904 36.1239 30.1333 32.0003 30.1333C27.8765 30.1333 24.5336 26.7904 24.5336 22.6667C24.5336 18.543 27.8765 15.2 32.0003 15.2C36.1239 15.2 39.4669 18.543 39.4669 22.6667Z" fill="#070E0F"/>
<path d="M35.7336 35.7333H28.2669C23.1123 35.7333 18.9336 39.9121 18.9336 45.0667C18.9336 47.1286 20.6051 48.8 22.6669 48.8H41.3336C43.3955 48.8 45.0669 47.1286 45.0669 45.0667C45.0669 39.9121 40.8882 35.7333 35.7336 35.7333Z" fill="#070E0F"/>
<path d="M39.4669 22.6667H37.4669C37.4669 25.6858 35.0194 28.1333 32.0003 28.1333V30.1333V32.1333C37.2285 32.1333 41.4669 27.895 41.4669 22.6667H39.4669ZM32.0003 30.1333V28.1333C28.9811 28.1333 26.5336 25.6858 26.5336 22.6667H24.5336H22.5336C22.5336 27.895 26.772 32.1333 32.0003 32.1333V30.1333ZM24.5336 22.6667H26.5336C26.5336 19.6475 28.9811 17.2 32.0003 17.2V15.2V13.2C26.772 13.2 22.5336 17.4384 22.5336 22.6667H24.5336ZM32.0003 15.2V17.2C35.0194 17.2 37.4669 19.6475 37.4669 22.6667H39.4669H41.4669C41.4669 17.4384 37.2285 13.2 32.0003 13.2V15.2ZM35.7336 35.7333V33.7333H28.2669V35.7333V37.7333H35.7336V35.7333ZM28.2669 35.7333V33.7333C22.0077 33.7333 16.9336 38.8075 16.9336 45.0667H18.9336H20.9336C20.9336 41.0166 24.2169 37.7333 28.2669 37.7333V35.7333ZM18.9336 45.0667H16.9336C16.9336 48.2332 19.5005 50.8 22.6669 50.8V48.8V46.8C21.7096 46.8 20.9336 46.024 20.9336 45.0667H18.9336ZM22.6669 48.8V50.8H41.3336V48.8V46.8H22.6669V48.8ZM41.3336 48.8V50.8C44.5001 50.8 47.0669 48.2332 47.0669 45.0667H45.0669H43.0669C43.0669 46.024 42.2909 46.8 41.3336 46.8V48.8ZM45.0669 45.0667H47.0669C47.0669 38.8075 41.9928 33.7333 35.7336 33.7333V35.7333V37.7333C39.7836 37.7333 43.0669 41.0166 43.0669 45.0667H45.0669Z" fill="#070E0F"/>
</svg>
