<svg width="29" height="29" viewBox="0 0 29 29" fill="none" xmlns="http://www.w3.org/2000/svg">
<path d="M14.4998 26.5834C21.1732 26.5834 26.5832 21.1734 26.5832 14.5C26.5832 7.82658 21.1732 2.41669 14.4998 2.41669C7.82639 2.41669 2.4165 7.82658 2.4165 14.5C2.4165 16.1662 2.75371 17.7536 3.36362 19.1977C3.7007 19.9956 3.86923 20.3948 3.8901 20.6964C3.91097 20.998 3.82221 21.3296 3.64468 21.9931L2.4165 26.5834L7.00668 25.3552C7.67019 25.1777 8.00195 25.0889 8.30353 25.1098C8.60512 25.1306 9.00416 25.2991 9.80226 25.6363C11.2463 26.2461 12.8337 26.5834 14.4998 26.5834Z" stroke="#F0F4F5" stroke-width="2" stroke-linejoin="round"/>
<path d="M10.3775 14.9559L11.4299 13.6488C11.8734 13.098 12.4217 12.5851 12.4647 11.8516C12.4755 11.6664 12.3452 10.8346 12.0845 9.17106C11.982 8.51729 11.3716 8.45831 10.8429 8.45831C10.154 8.45831 9.80947 8.45831 9.46739 8.61456C9.03504 8.81205 8.59116 9.36735 8.49374 9.83259C8.41668 10.2007 8.47395 10.4543 8.5885 10.9616C9.07502 13.1162 10.2164 15.2441 11.9862 17.0139C13.7561 18.7838 15.8839 19.9252 18.0385 20.4116C18.5458 20.5262 18.7994 20.5835 19.1676 20.5064C19.6328 20.409 20.188 19.9652 20.3856 19.5327C20.5418 19.1906 20.5418 18.8462 20.5418 18.1572C20.5418 17.6285 20.4829 17.0181 19.829 16.9157C18.1655 16.6549 17.3338 16.5247 17.1485 16.5354C16.415 16.5784 15.9022 17.1267 15.3513 17.5702L14.0443 18.6226" stroke="#F0F4F5" stroke-width="2"/>
</svg>
