<svg width="29" height="29" viewBox="0 0 29 29" fill="none" xmlns="http://www.w3.org/2000/svg">
<path d="M14.5 26.5833C21.1733 26.5833 26.5833 21.1733 26.5833 14.5C26.5833 7.82652 21.1733 2.41663 14.5 2.41663C7.82652 2.41663 2.41663 7.82652 2.41663 14.5C2.41663 16.1661 2.75384 17.7535 3.36374 19.1976C3.70082 19.9956 3.86936 20.3947 3.89022 20.6963C3.91109 20.9979 3.82233 21.3296 3.6448 21.9931L2.41663 26.5833L7.00681 25.3551C7.67031 25.1776 8.00207 25.0888 8.30365 25.1097C8.60524 25.1305 9.00428 25.2991 9.80238 25.6362C11.2465 26.246 12.8338 26.5833 14.5 26.5833Z" stroke="#F0F4F5" stroke-width="2" stroke-linejoin="round"/>
<path d="M10.3774 14.9559L11.4298 13.6489C11.8733 13.098 12.4216 12.5852 12.4646 11.8517C12.4754 11.6664 12.3451 10.8346 12.0843 9.17112C11.9819 8.51735 11.3715 8.45837 10.8428 8.45837C10.1538 8.45837 9.80935 8.45837 9.46727 8.61462C9.03492 8.81211 8.59104 9.36742 8.49362 9.83265C8.41655 10.2007 8.47383 10.4544 8.58838 10.9617C9.0749 13.1163 10.2163 15.2441 11.9861 17.014C13.7559 18.7838 15.8838 19.9252 18.0384 20.4117C18.5457 20.5262 18.7993 20.5835 19.1675 20.5064C19.6327 20.409 20.1879 19.9652 20.3855 19.5328C20.5417 19.1907 20.5417 18.8463 20.5417 18.1573C20.5417 17.6285 20.4827 17.0182 19.8289 16.9157C18.1654 16.655 17.3337 16.5247 17.1483 16.5355C16.4149 16.5785 15.9021 17.1267 15.3512 17.5703L14.0441 18.6226" stroke="#F0F4F5" stroke-width="2"/>
</svg>
