<svg width="29" height="28" viewBox="0 0 29 28" fill="none" xmlns="http://www.w3.org/2000/svg">
<path d="M13.5642 1.59021C13.9177 0.803282 15.0349 0.803284 15.3884 1.59021L18.0886 7.60583C18.5249 8.57756 19.4436 9.24521 20.5027 9.35974L27.0574 10.0687C27.9154 10.1615 28.2613 11.2247 27.6218 11.8041L22.7351 16.2299C21.9455 16.9451 21.5948 18.026 21.8132 19.0687L23.1638 25.5219C23.3404 26.3663 22.4368 27.0231 21.6882 26.5941L15.9685 23.3148C15.0443 22.7849 13.9084 22.7849 12.9841 23.3148L7.2644 26.5941C6.51585 27.0231 5.61227 26.3663 5.78882 25.5219L7.1394 19.0687C7.35779 18.026 7.00713 16.9451 6.21753 16.2299L1.33081 11.8041C0.691329 11.2246 1.03728 10.1615 1.89526 10.0687L8.44995 9.35974C9.50899 9.24521 10.4277 8.57756 10.864 7.60583L13.5642 1.59021Z" stroke="white" stroke-width="2"/>
</svg>
