<svg width="31" height="30" viewBox="0 0 31 30" fill="none" xmlns="http://www.w3.org/2000/svg">
<path d="M14.5195 1.59033C14.873 0.803172 15.9913 0.803146 16.3447 1.59033L19.3232 8.22705C19.7595 9.19892 20.6782 9.8664 21.7373 9.98096L28.9697 10.7632C29.8275 10.8562 30.1727 11.9192 29.5332 12.4985L24.1416 17.3823C23.3523 18.0975 23.0015 19.1777 23.2197 20.2202L24.7109 27.3403C24.8877 28.1849 23.983 28.8418 23.2344 28.4126L16.9238 24.7944C15.9996 24.2647 14.8636 24.2646 13.9395 24.7944L7.62988 28.4126C6.88123 28.8419 5.97658 28.185 6.15332 27.3403L7.64453 20.2202C7.86281 19.1775 7.51121 18.0975 6.72168 17.3823L1.33105 12.4985C0.691473 11.9192 1.03666 10.8561 1.89453 10.7632L9.12695 9.98096C10.186 9.86636 11.1048 9.1989 11.541 8.22705L14.5195 1.59033Z" stroke="white" stroke-width="2"/>
</svg>
