<svg width="33" height="32" viewBox="0 0 33 32" fill="none" xmlns="http://www.w3.org/2000/svg">
<path d="M14.6594 2.18124C15.3662 0.606513 17.6011 0.606513 18.3079 2.18124L20.8323 7.80331C21.4139 9.09924 22.6388 9.98943 24.051 10.1422L30.178 10.8053C31.8941 10.9908 32.5852 13.1172 31.3059 14.276L26.7385 18.4137C25.6858 19.3673 25.2179 20.8075 25.509 22.1978L26.7717 28.2301C27.1255 29.9195 25.317 31.2332 23.8196 30.3746L18.4729 27.3092C17.2408 26.6029 15.7265 26.6029 14.4944 27.3092L9.14771 30.3746C7.65029 31.2332 5.84174 29.9195 6.19556 28.2301L7.45825 22.1978C7.74943 20.8075 7.2815 19.3673 6.22876 18.4137L1.66138 14.276C0.382107 13.1172 1.07322 10.9908 2.78931 10.8053L8.91626 10.1422C10.3285 9.98943 11.5534 9.09924 12.135 7.80331L14.6594 2.18124Z" stroke="white" stroke-width="2"/>
</svg>
