<svg width="29" height="28" viewBox="0 0 29 28" fill="none" xmlns="http://www.w3.org/2000/svg">
<path d="M13.564 1.59033C13.9175 0.803404 15.0347 0.803406 15.3882 1.59033L18.0884 7.60596C18.5247 8.57768 19.4434 9.24534 20.5024 9.35986L27.0571 10.0688C27.9151 10.1616 28.2611 11.2248 27.6216 11.8042L22.7349 16.23C21.9453 16.9452 21.5946 18.0261 21.813 19.0688L23.1636 25.522C23.3401 26.3664 22.4365 27.0232 21.688 26.5942L15.9683 23.3149C15.044 22.785 13.9081 22.785 12.9839 23.3149L7.26416 26.5942C6.5156 27.0232 5.61202 26.3664 5.78857 25.522L7.13916 19.0688C7.35755 18.0261 7.00688 16.9452 6.21729 16.23L1.33057 11.8042C0.691085 11.2248 1.03703 10.1616 1.89502 10.0688L8.44971 9.35986C9.50874 9.24534 10.4275 8.57768 10.8638 7.60596L13.564 1.59033Z" stroke="white" stroke-width="2"/>
</svg>
