<svg width="31" height="30" viewBox="0 0 31 30" fill="none" xmlns="http://www.w3.org/2000/svg">
<path d="M14.52 1.59033C14.8735 0.803172 15.9918 0.803146 16.3452 1.59033L19.3237 8.22705C19.76 9.19892 20.6787 9.8664 21.7378 9.98096L28.9702 10.7632C29.828 10.8562 30.1732 11.9192 29.5337 12.4985L24.1421 17.3823C23.3528 18.0975 23.002 19.1777 23.2202 20.2202L24.7114 27.3403C24.8881 28.1849 23.9835 28.8418 23.2349 28.4126L16.9243 24.7944C16.0001 24.2647 14.8641 24.2646 13.9399 24.7944L7.63037 28.4126C6.88172 28.8419 5.97707 28.185 6.15381 27.3403L7.64502 20.2202C7.86329 19.1775 7.5117 18.0975 6.72217 17.3823L1.33154 12.4985C0.691961 11.9192 1.03715 10.8561 1.89502 10.7632L9.12744 9.98096C10.1865 9.86636 11.1053 9.1989 11.5415 8.22705L14.52 1.59033Z" stroke="white" stroke-width="2"/>
</svg>
