<svg width="45" height="43" viewBox="0 0 45 43" fill="none" xmlns="http://www.w3.org/2000/svg">
<path d="M23.9595 1.07336L29.411 12.0791C29.535 12.3584 29.73 12.6004 29.9766 12.7809C30.2233 12.9613 30.5129 13.074 30.8167 13.1076L42.8509 14.8905C43.1996 14.9353 43.528 15.0783 43.7982 15.3028C44.0684 15.5273 44.2693 15.8241 44.3769 16.1584C44.4849 16.4928 44.4952 16.8509 44.4071 17.191C44.3193 17.5311 44.1362 17.8391 43.8794 18.0791L35.2052 26.6848C34.984 26.8916 34.8177 27.1505 34.7221 27.438C34.6261 27.7254 34.6038 28.0322 34.6566 28.3305L36.748 40.4332C36.8087 40.7812 36.7703 41.1388 36.6376 41.4659C36.5049 41.793 36.2831 42.0762 35.9972 42.2836C35.7116 42.4907 35.3731 42.6134 35.021 42.6381C34.6689 42.6625 34.3168 42.5877 34.0051 42.4218L23.171 36.6961C22.8936 36.56 22.5886 36.4893 22.2795 36.4893C21.9705 36.4893 21.6656 36.56 21.3881 36.6961L10.5538 42.4218C10.2421 42.5877 9.89019 42.6625 9.53804 42.6381C9.18589 42.6134 8.84766 42.4907 8.56189 42.2836C8.27609 42.0762 8.05419 41.793 7.92144 41.4659C7.78872 41.1388 7.75042 40.7812 7.81097 40.4332L9.9024 28.1934C9.9554 27.8951 9.93298 27.5882 9.83718 27.3008C9.74139 27.0134 9.57521 26.7545 9.35383 26.5476L0.576693 18.0791C0.317023 17.8326 0.134407 17.516 0.0509692 17.1678C-0.0324686 16.8196 -0.0131451 16.4547 0.106591 16.1172C0.22633 15.7798 0.441346 15.4843 0.725599 15.2666C1.00985 15.0489 1.35114 14.9182 1.70811 14.8905L13.7424 13.1076C14.0462 13.074 14.3358 12.9613 14.5825 12.7809C14.8291 12.6004 15.0241 12.3584 15.1481 12.0791L20.5995 1.07336C20.748 0.752818 20.985 0.481437 21.2828 0.291247C21.5804 0.101057 21.9263 0 22.2795 0C22.6328 0 22.9787 0.101057 23.2764 0.291247C23.574 0.481437 23.8111 0.752818 23.9595 1.07336Z" fill="#870005"/>
</svg>
